# xmcd CD database file
#
# Track frame offsets:
#	150
#	1407
#	18115
#	39555
#	58502
#	74537
#	90052
#	113187
#	134730
#	155225
#	175285
#	190017
#	210282
#
# Disc length: 2822 seconds
#
# Revision: 14
# Processed by: cddbd v1.5.2PL0 Copyright (c) Steve Scherf et al.
# Submitted via: CDex 1.51
#
DISCID=a70b040d
DTITLE=Chris Whitley - Living With The Law
DYEAR=1991
DGENRE=Blues
TTITLE0=Excerpt
TTITLE1=Living With The Law
TTITLE2=Big Sky Country
TTITLE3=Kick The Stones
TTITLE4=Make The Dirt Stick
TTITLE5=Poison Girl
TTITLE6=Dust Radio
TTITLE7=Phone Call From Leavenworth
TTITLE8=I Forget You Every Day
TTITLE9=Long Way Around
TTITLE10=Look What Love Has Done
TTITLE11=Bordertown
TTITLE12=(Bonus Track)
EXTD=YEAR: 1991
EXTT0=
EXTT1=
EXTT2=
EXTT3=
EXTT4=
EXTT5=
EXTT6=
EXTT7=
EXTT8=
EXTT9=
EXTT10=
EXTT11=
EXTT12=
PLAYORDER=
